<svg width="190" height="118" viewBox="0 0 190 118" fill="none" xmlns="http://www.w3.org/2000/svg">
<path d="M9.32 0.980011C4.25007 0.980011 0.139999 5.09008 0.139999 10.16C0.139999 15.2299 4.25007 19.34 9.32 19.34V0.980011ZM180.68 19.34C185.75 19.34 189.86 15.2299 189.86 10.16C189.86 5.09008 185.75 0.980011 180.68 0.980011V19.34ZM9.32 49.94C4.25007 49.94 0.139999 54.0502 0.139999 59.12C0.139999 64.1898 4.25007 68.3 9.32 68.3V49.94ZM156.2 68.3C161.27 68.3 165.38 64.1898 165.38 59.12C165.38 54.0502 161.27 49.94 156.2 49.94V68.3ZM9.32 98.9C4.25007 98.9 0.139999 103.01 0.139999 108.08C0.139999 113.15 4.25007 117.26 9.32 117.26V98.9ZM95 117.26C100.07 117.26 104.18 113.15 104.18 108.08C104.18 103.01 100.07 98.9 95 98.9V117.26ZM9.32 19.34H180.68V0.980011H9.32V19.34ZM9.32 68.3H156.2V49.94H9.32V68.3ZM9.32 117.26H95V98.9H9.32V117.26Z" fill="#0AB2A8"/>
</svg>
