<svg width="258" height="164" viewBox="0 0 258 164" fill="none" xmlns="http://www.w3.org/2000/svg">
<path d="M22.608 154.692H18.72V142.704H7.668V154.692H3.744V127.836H7.668V139.032H18.72V127.836H22.608V154.692ZM44.1562 146.232H32.0243C32.0963 147.96 32.5643 149.304 33.4283 150.264C34.3163 151.296 35.5403 151.812 37.1003 151.812C39.2603 151.812 41.1683 151.344 42.8243 150.408V154.044C40.9043 154.764 38.9603 155.124 36.9923 155.124C33.8963 155.124 31.5923 154.14 30.0803 152.172C28.7603 150.42 28.1003 147.972 28.1003 144.828C28.1003 141.804 28.8323 139.344 30.2963 137.448C31.7603 135.552 33.7283 134.604 36.2003 134.604C38.9603 134.604 41.0243 135.588 42.3923 137.556C43.5683 139.236 44.1562 141.456 44.1562 144.216V146.232ZM40.2323 142.812C40.2323 141.468 39.8843 140.34 39.1883 139.428C38.4683 138.468 37.5203 137.988 36.3443 137.988C35.1443 137.988 34.1243 138.48 33.2843 139.464C32.4443 140.448 32.0243 141.564 32.0243 142.812H40.2323ZM59.2374 154.728V152.82C58.0614 154.356 56.3694 155.124 54.1614 155.124C51.7614 155.124 49.9854 154.452 48.8334 153.108C48.0174 152.124 47.6094 150.924 47.6094 149.508C47.6094 144.612 51.2094 142.164 58.4094 142.164H58.9494V141.516C58.9494 139.164 57.8574 137.988 55.6734 137.988C53.7054 137.988 51.7614 138.504 49.8414 139.536V136.008C51.6654 135.072 53.6814 134.604 55.8894 134.604C58.1934 134.604 59.8734 135.144 60.9294 136.224C62.0574 137.4 62.6214 139.224 62.6214 141.696V150.084C62.6214 152.292 62.6934 153.84 62.8374 154.728H59.2374ZM58.9494 145.512H58.1934C56.3214 145.512 54.8814 145.68 53.8734 146.016C52.2654 146.544 51.4614 147.588 51.4614 149.148C51.4614 150.876 52.4574 151.74 54.4494 151.74C57.4494 151.74 58.9494 149.916 58.9494 146.268V145.512ZM72.0866 154.548H68.1626V125.892H72.0866V154.548ZM86.8826 154.548C85.9706 154.932 84.9386 155.124 83.7866 155.124C81.5066 155.124 80.0306 154.512 79.3586 153.288C78.8546 152.472 78.6026 150.9 78.6026 148.572V138.384H75.5066V134.82H78.6026V130.536L82.4906 129.276V134.82H86.3066V138.384H82.4906V149.58C82.4906 150.972 83.1266 151.668 84.3986 151.668C85.2386 151.668 85.9706 151.512 86.5946 151.2L86.8826 154.548ZM106.333 154.548H102.481V143.028C102.481 141.276 102.277 140.016 101.869 139.248C101.317 138.336 100.357 137.88 98.9888 137.88C97.4768 137.88 96.3128 138.504 95.4968 139.752C94.8008 140.88 94.4528 142.296 94.4528 144V154.548H90.6008V125.892H94.4528V136.728C94.9328 135.936 95.6288 135.336 96.5408 134.928C97.4288 134.496 98.3768 134.28 99.3848 134.28C101.905 134.28 103.717 135.048 104.821 136.584C105.829 137.952 106.333 140.052 106.333 142.884V154.548ZM137.283 144.108L132.927 133.02L128.535 144.108H137.283ZM145.635 154.692H141.459L138.723 147.816H127.059L124.287 154.692H120.147L131.091 127.836H135.015L145.635 154.692ZM153.125 154.692H149.273V134.532H153.125V154.692ZM153.125 131.076H149.273V126.576H153.125V131.076ZM166.329 137.7C164.697 137.7 163.485 138.432 162.693 139.896C162.021 141.096 161.685 142.728 161.685 144.792C161.685 149.376 163.233 151.668 166.329 151.668C167.817 151.668 168.993 150.924 169.857 149.436C170.553 148.164 170.901 146.58 170.901 144.684C170.901 142.788 170.553 141.204 169.857 139.932C169.017 138.444 167.841 137.7 166.329 137.7ZM174.537 154.728H170.901V152.928C169.701 154.416 168.057 155.16 165.969 155.16C163.353 155.16 161.325 154.188 159.885 152.244C158.541 150.348 157.869 147.864 157.869 144.792C157.869 141.624 158.493 139.128 159.741 137.304C161.109 135.264 163.185 134.244 165.969 134.244C167.889 134.244 169.533 135.036 170.901 136.62V125.82H174.537V154.728ZM210.167 154.692H206.279V142.704H195.227V154.692H191.303V127.836H195.227V139.032H206.279V127.836H210.167V154.692ZM228.979 154.728V152.748C227.683 154.332 225.979 155.124 223.867 155.124C221.515 155.124 219.727 154.416 218.503 153C217.423 151.68 216.883 149.904 216.883 147.672V135.072H220.735V146.952C220.735 150.144 221.899 151.74 224.227 151.74C225.787 151.74 226.975 151.152 227.791 149.976C228.439 149.016 228.763 147.708 228.763 146.052V135.072H232.579V149.76C232.579 151.536 232.651 153.192 232.795 154.728H228.979ZM246.923 137.628C245.411 137.628 244.235 138.372 243.395 139.86C242.699 141.132 242.351 142.716 242.351 144.612C242.351 146.46 242.711 148.032 243.431 149.328C244.247 150.792 245.411 151.524 246.923 151.524C250.019 151.524 251.567 149.244 251.567 144.684C251.567 139.98 250.019 137.628 246.923 137.628ZM242.351 125.892V136.476C243.815 134.94 245.471 134.172 247.319 134.172C250.079 134.172 252.155 135.192 253.547 137.232C254.795 139.008 255.419 141.492 255.419 144.684C255.419 147.78 254.747 150.252 253.403 152.1C251.915 154.044 249.887 155.016 247.319 155.016C245.135 155.016 243.479 154.308 242.351 152.892V154.548H238.715V125.892H242.351Z" fill="#04D5F2"/>
<circle cx="129" cy="59" r="59" fill="url(#paint0_linear_5_23)"/>
<path d="M92.872 79H88.36V45.4H92.872V59.512H107.464V45.4H111.976V79H107.464V63.736H92.872V79ZM122.48 79H118.208V57.88C118.208 54.424 119.312 51.48 121.52 49.048C123.76 46.616 126.64 45.4 130.16 45.4H141.152V79H136.64V49.624H130.16C127.824 49.624 125.952 50.312 124.544 51.688C123.168 53.064 122.48 55.256 122.48 58.264V62.344C124.272 60.456 126.832 59.512 130.16 59.512H134.528V63.736H130.16C128.304 63.736 126.784 63.96 125.6 64.408C124.448 64.856 123.408 65.624 122.48 66.712V79ZM152.403 79H147.891V45.4H152.403V59.512H166.995V45.4H171.507V79H166.995V63.736H152.403V79Z" fill="#04A7F2" fill-opacity="0.4"/>
<path d="M91.872 76H87.36V42.4H91.872V56.512H106.464V42.4H110.976V76H106.464V60.736H91.872V76ZM121.48 76H117.208V54.88C117.208 51.424 118.312 48.48 120.52 46.048C122.76 43.616 125.64 42.4 129.16 42.4H140.152V76H135.64V46.624H129.16C126.824 46.624 124.952 47.312 123.544 48.688C122.168 50.064 121.48 52.256 121.48 55.264V59.344C123.272 57.456 125.832 56.512 129.16 56.512H133.528V60.736H129.16C127.304 60.736 125.784 60.96 124.6 61.408C123.448 61.856 122.408 62.624 121.48 63.712V76ZM151.403 76H146.891V42.4H151.403V56.512H165.995V42.4H170.507V76H165.995V60.736H151.403V76Z" fill="#F5F5F5"/>
<defs>
<linearGradient id="paint0_linear_5_23" x1="162.97" y1="11.6212" x2="99.5" y2="110.848" gradientUnits="userSpaceOnUse">
<stop offset="0.0696303" stop-color="#26EEA0" stop-opacity="0.67"/>
<stop offset="0.495" stop-color="#19DFE6"/>
<stop offset="0.9999" stop-color="#59CAEE"/>
<stop offset="1" stop-color="#04A6F4"/>
</linearGradient>
</defs>
</svg>
