<svg width="162" height="236" viewBox="0 0 162 236" fill="none" xmlns="http://www.w3.org/2000/svg">
<path d="M0.0184025 149.686C0.0184025 151.959 0.904599 161.49 7.37965 172.801C12.8614 182.378 23.2656 193.578 42.4143 196.053V228.031C42.4143 232.431 46.0022 236 50.4284 236C54.8538 236 58.4417 232.431 58.4417 228.031V188.583C58.4417 184.182 54.8538 180.614 50.4284 180.614C37.2538 180.614 27.54 175.477 21.5588 165.345C17.147 157.874 16.0274 151.562 16.0274 148.782C16.0274 131.961 16.0274 83.3898 16.0274 83.3898C16.0274 81.9738 16.0274 78.2098 22.6096 78.2098C29.1901 78.2098 29.1901 81.973 29.1901 83.3898V110.842C29.1901 113.016 30.0827 115.096 31.6633 116.6C33.2431 118.103 35.3703 118.908 37.5558 118.803C37.575 118.795 42.2401 118.821 48.139 122.134C57.1951 127.221 64.5028 137.429 69.271 151.654C70.6711 155.83 75.2099 158.088 79.4083 156.695C83.6076 155.303 85.877 150.79 84.477 146.615C74.1079 115.679 55.8774 106.59 45.2191 103.943V30.2247C45.2191 28.5004 45.2191 25.6135 51.8005 25.6135C58.381 25.6135 58.381 28.5004 58.381 30.2247V73.7138C58.381 78.1152 61.9697 81.683 66.3951 81.683C70.8205 81.683 74.4084 78.1152 74.4084 73.7138V20.5487C74.4084 18.8244 74.4084 15.9375 80.9897 15.9375C87.5703 15.9375 87.5703 18.8244 87.5703 20.5487V73.7138C87.5703 78.1152 91.159 81.683 95.5844 81.683C100.01 81.683 103.598 78.1152 103.598 73.7138V30.2247C103.598 28.5004 103.598 25.6135 110.179 25.6135C116.76 25.6135 116.76 28.5004 116.76 30.2247V86.8631C116.76 91.2637 120.349 94.8323 124.774 94.8323C129.201 94.8323 132.789 91.2637 132.789 86.8631V57.0921C132.789 55.6761 132.789 51.9121 139.37 51.9121C145.951 51.9121 145.958 55.6753 145.958 57.0921V149.587C145.966 149.727 146.531 163.959 138.031 172.901C133.168 178.019 125.937 180.614 116.541 180.614C112.114 180.614 108.527 184.182 108.527 188.583V228.031C108.527 232.431 112.114 236 116.541 236C120.966 236 124.554 232.431 124.554 228.031V196.045C134.837 194.685 143.265 190.598 149.68 183.848C162.325 170.542 162.079 151.598 161.979 148.965V57.0921C161.979 44.6588 152.68 35.9737 139.369 35.9737C137.042 35.9737 134.841 36.2455 132.788 36.75V30.2255C132.788 17.9336 123.701 9.67679 110.177 9.67679C106.992 9.67679 104.056 10.1401 101.424 11.0014C97.9681 4.1741 90.602 0 80.9913 0C71.3798 0 64.0146 4.1741 60.5545 11.0006C57.9223 10.1393 54.9864 9.676 51.8013 9.676C38.2774 9.676 29.1909 17.9336 29.1909 30.2247V63.0478C27.138 62.5432 24.9365 62.2722 22.6104 62.2722C9.29748 62.2722 2.42968e-05 70.9573 2.42968e-05 83.3906C2.42968e-05 83.3906 0.0184025 132.491 0.0184025 149.686Z" fill="#0AB2A8"/>
</svg>
